<mxfile host="Electron" agent="Mozilla/5.0 (Macintosh; Intel Mac OS X 10_15_7) AppleWebKit/537.36 (KHTML, like Gecko) draw.io/28.1.2 Chrome/138.0.7204.243 Electron/37.4.0 Safari/537.36" version="28.1.2">
  <diagram name="Seite-1" id="NrbdtOU8l5xmAe7ymhUr">
    <mxGraphModel dx="1410" dy="1943" grid="1" gridSize="10" guides="1" tooltips="1" connect="1" arrows="1" fold="1" page="1" pageScale="1" pageWidth="827" pageHeight="1169" math="0" shadow="0">
      <root>
        <mxCell id="0" />
        <mxCell id="1" parent="0" />
        <mxCell id="C17X725cu8cBMqdl3EqZ-1" value="" style="rounded=0;whiteSpace=wrap;html=1;" parent="1" vertex="1">
          <mxGeometry y="-1169" width="820" height="2019" as="geometry" />
        </mxCell>
        <mxCell id="73rr_FjuBhcJZTZMzzjQ-1" value="Service B" style="shape=cube;whiteSpace=wrap;html=1;boundedLbl=1;backgroundOutline=1;darkOpacity=0.05;darkOpacity2=0.1;labelPosition=center;verticalLabelPosition=top;align=center;verticalAlign=bottom;" parent="1" vertex="1">
          <mxGeometry x="370" y="-249" width="260" height="200" as="geometry" />
        </mxCell>
        <mxCell id="7fS5oWLQzM0IxhjuAHD0-30" value="Kontext 4 (Generic)" style="rounded=0;whiteSpace=wrap;html=1;labelPosition=center;verticalLabelPosition=bottom;align=center;verticalAlign=top;strokeColor=light-dark(#000000,#0433FF);" parent="1" vertex="1">
          <mxGeometry x="130" y="-469" width="280" height="120" as="geometry" />
        </mxCell>
        <mxCell id="7fS5oWLQzM0IxhjuAHD0-29" value="Kontext 3 (Supporting)" style="rounded=0;whiteSpace=wrap;html=1;labelPosition=center;verticalLabelPosition=bottom;align=center;verticalAlign=top;strokeColor=light-dark(#000000,#0433FF);" parent="1" vertex="1">
          <mxGeometry x="430" y="-469" width="370" height="120" as="geometry" />
        </mxCell>
        <mxCell id="7fS5oWLQzM0IxhjuAHD0-28" value="Kontext 2 (Supporting)" style="rounded=0;whiteSpace=wrap;html=1;labelPosition=center;verticalLabelPosition=top;align=center;verticalAlign=bottom;strokeColor=light-dark(#000000,#0433FF);" parent="1" vertex="1">
          <mxGeometry x="430" y="-614" width="200" height="130" as="geometry" />
        </mxCell>
        <mxCell id="eQGWegekin0o1_Gf9wDu-5" style="edgeStyle=orthogonalEdgeStyle;rounded=0;orthogonalLoop=1;jettySize=auto;html=1;exitX=1;exitY=0.5;exitDx=0;exitDy=0;entryX=0;entryY=0.5;entryDx=0;entryDy=0;" parent="1" source="eQGWegekin0o1_Gf9wDu-2" target="eQGWegekin0o1_Gf9wDu-3" edge="1">
          <mxGeometry relative="1" as="geometry" />
        </mxCell>
        <mxCell id="eQGWegekin0o1_Gf9wDu-2" value="Schritt 1" style="shape=document;whiteSpace=wrap;html=1;boundedLbl=1;fontSize=16;" parent="1" vertex="1">
          <mxGeometry x="50" y="-909" width="120" height="80" as="geometry" />
        </mxCell>
        <mxCell id="73rr_FjuBhcJZTZMzzjQ-4" style="edgeStyle=orthogonalEdgeStyle;rounded=0;orthogonalLoop=1;jettySize=auto;html=1;exitX=1;exitY=0.25;exitDx=0;exitDy=0;entryX=0;entryY=0.25;entryDx=0;entryDy=0;" parent="1" source="eQGWegekin0o1_Gf9wDu-3" target="eQGWegekin0o1_Gf9wDu-4" edge="1">
          <mxGeometry relative="1" as="geometry" />
        </mxCell>
        <mxCell id="73rr_FjuBhcJZTZMzzjQ-6" style="edgeStyle=orthogonalEdgeStyle;rounded=0;orthogonalLoop=1;jettySize=auto;html=1;exitX=0;exitY=0.5;exitDx=0;exitDy=0;entryX=0;entryY=0.5;entryDx=0;entryDy=0;" parent="1" source="eQGWegekin0o1_Gf9wDu-4" target="73rr_FjuBhcJZTZMzzjQ-5" edge="1">
          <mxGeometry relative="1" as="geometry" />
        </mxCell>
        <mxCell id="7fS5oWLQzM0IxhjuAHD0-2" style="edgeStyle=orthogonalEdgeStyle;rounded=0;orthogonalLoop=1;jettySize=auto;html=1;exitX=1;exitY=0.5;exitDx=0;exitDy=0;entryX=1;entryY=0.5;entryDx=0;entryDy=0;" parent="1" source="eQGWegekin0o1_Gf9wDu-3" target="7fS5oWLQzM0IxhjuAHD0-1" edge="1">
          <mxGeometry relative="1" as="geometry" />
        </mxCell>
        <mxCell id="eQGWegekin0o1_Gf9wDu-3" value="Schritt 2" style="shape=document;whiteSpace=wrap;html=1;boundedLbl=1;fontSize=16;" parent="1" vertex="1">
          <mxGeometry x="240" y="-909" width="120" height="80" as="geometry" />
        </mxCell>
        <mxCell id="eQGWegekin0o1_Gf9wDu-4" value="Schritt 3" style="shape=document;whiteSpace=wrap;html=1;boundedLbl=1;fontSize=16;" parent="1" vertex="1">
          <mxGeometry x="480" y="-909" width="120" height="80" as="geometry" />
        </mxCell>
        <mxCell id="eQGWegekin0o1_Gf9wDu-13" value="Kontext 1 (Core)" style="rounded=0;whiteSpace=wrap;html=1;labelPosition=center;verticalLabelPosition=top;align=center;verticalAlign=bottom;strokeColor=light-dark(#000000,#0433FF);" parent="1" vertex="1">
          <mxGeometry x="20" y="-614" width="390" height="130" as="geometry" />
        </mxCell>
        <mxCell id="eQGWegekin0o1_Gf9wDu-22" value="Service A" style="shape=cube;whiteSpace=wrap;html=1;boundedLbl=1;backgroundOutline=1;darkOpacity=0.05;darkOpacity2=0.1;labelPosition=center;verticalLabelPosition=top;align=center;verticalAlign=bottom;" parent="1" vertex="1">
          <mxGeometry x="50" y="-249" width="260" height="110" as="geometry" />
        </mxCell>
        <mxCell id="eQGWegekin0o1_Gf9wDu-23" value="Kontext 1" style="rounded=0;whiteSpace=wrap;html=1;labelPosition=center;verticalLabelPosition=middle;align=center;verticalAlign=middle;strokeColor=light-dark(#000000,#0433FF);" parent="1" vertex="1">
          <mxGeometry x="100" y="-209" width="180" height="50" as="geometry" />
        </mxCell>
        <mxCell id="eQGWegekin0o1_Gf9wDu-24" value="Modul / Kontext 3" style="rounded=0;whiteSpace=wrap;html=1;labelPosition=center;verticalLabelPosition=middle;align=center;verticalAlign=middle;strokeColor=light-dark(#000000,#0433FF);" parent="1" vertex="1">
          <mxGeometry x="420" y="-129" width="180" height="50" as="geometry" />
        </mxCell>
        <mxCell id="73rr_FjuBhcJZTZMzzjQ-3" value="Modul / Kontext 2" style="rounded=0;whiteSpace=wrap;html=1;labelPosition=center;verticalLabelPosition=middle;align=center;verticalAlign=middle;strokeColor=light-dark(#000000,#0433FF);" parent="1" vertex="1">
          <mxGeometry x="420" y="-199" width="180" height="50" as="geometry" />
        </mxCell>
        <mxCell id="7fS5oWLQzM0IxhjuAHD0-15" style="edgeStyle=orthogonalEdgeStyle;rounded=0;orthogonalLoop=1;jettySize=auto;html=1;exitX=1;exitY=0.5;exitDx=0;exitDy=0;entryX=0;entryY=0.5;entryDx=0;entryDy=0;" parent="1" source="73rr_FjuBhcJZTZMzzjQ-5" target="7fS5oWLQzM0IxhjuAHD0-14" edge="1">
          <mxGeometry relative="1" as="geometry" />
        </mxCell>
        <mxCell id="73rr_FjuBhcJZTZMzzjQ-5" value="Schritt 4" style="shape=document;whiteSpace=wrap;html=1;boundedLbl=1;fontSize=16;" parent="1" vertex="1">
          <mxGeometry x="480" y="-769" width="120" height="80" as="geometry" />
        </mxCell>
        <mxCell id="73rr_FjuBhcJZTZMzzjQ-16" value="DB" style="strokeWidth=2;html=1;shape=mxgraph.flowchart.database;whiteSpace=wrap;labelPosition=center;verticalLabelPosition=bottom;align=center;verticalAlign=top;" parent="1" vertex="1">
          <mxGeometry x="490" y="271" width="60" height="60" as="geometry" />
        </mxCell>
        <mxCell id="7fS5oWLQzM0IxhjuAHD0-1" value="Schritt 6" style="shape=document;whiteSpace=wrap;html=1;boundedLbl=1;fontSize=16;" parent="1" vertex="1">
          <mxGeometry x="160" y="-769" width="120" height="80" as="geometry" />
        </mxCell>
        <mxCell id="7fS5oWLQzM0IxhjuAHD0-14" value="Schritt 5" style="shape=document;whiteSpace=wrap;html=1;boundedLbl=1;fontSize=16;" parent="1" vertex="1">
          <mxGeometry x="650" y="-769" width="120" height="80" as="geometry" />
        </mxCell>
        <mxCell id="7fS5oWLQzM0IxhjuAHD0-16" value="" style="endArrow=none;dashed=1;html=1;dashPattern=1 3;strokeWidth=2;rounded=0;" parent="1" edge="1">
          <mxGeometry width="50" height="50" relative="1" as="geometry">
            <mxPoint x="20" y="-659" as="sourcePoint" />
            <mxPoint x="800" y="-659" as="targetPoint" />
          </mxGeometry>
        </mxCell>
        <mxCell id="7fS5oWLQzM0IxhjuAHD0-17" style="edgeStyle=orthogonalEdgeStyle;rounded=0;orthogonalLoop=1;jettySize=auto;html=1;exitX=1;exitY=0.5;exitDx=0;exitDy=0;entryX=0;entryY=0.5;entryDx=0;entryDy=0;" parent="1" source="7fS5oWLQzM0IxhjuAHD0-18" target="7fS5oWLQzM0IxhjuAHD0-22" edge="1">
          <mxGeometry relative="1" as="geometry" />
        </mxCell>
        <mxCell id="7fS5oWLQzM0IxhjuAHD0-18" value="Schritt 1" style="shape=document;whiteSpace=wrap;html=1;boundedLbl=1;fontSize=16;" parent="1" vertex="1">
          <mxGeometry x="50" y="-589" width="120" height="80" as="geometry" />
        </mxCell>
        <mxCell id="7fS5oWLQzM0IxhjuAHD0-19" style="edgeStyle=orthogonalEdgeStyle;rounded=0;orthogonalLoop=1;jettySize=auto;html=1;exitX=1;exitY=0.25;exitDx=0;exitDy=0;entryX=0;entryY=0.25;entryDx=0;entryDy=0;" parent="1" source="7fS5oWLQzM0IxhjuAHD0-22" target="7fS5oWLQzM0IxhjuAHD0-23" edge="1">
          <mxGeometry relative="1" as="geometry" />
        </mxCell>
        <mxCell id="wYqAE9kgNwy14ZpDtIfz-1" value="Supplier" style="edgeLabel;html=1;align=center;verticalAlign=middle;resizable=0;points=[];" parent="7fS5oWLQzM0IxhjuAHD0-19" vertex="1" connectable="0">
          <mxGeometry x="-0.6833" y="2" relative="1" as="geometry">
            <mxPoint x="11" y="-18" as="offset" />
          </mxGeometry>
        </mxCell>
        <mxCell id="wYqAE9kgNwy14ZpDtIfz-2" value="Customer" style="edgeLabel;html=1;align=center;verticalAlign=middle;resizable=0;points=[];" parent="7fS5oWLQzM0IxhjuAHD0-19" vertex="1" connectable="0">
          <mxGeometry x="0.4667" y="-2" relative="1" as="geometry">
            <mxPoint x="2" y="-22" as="offset" />
          </mxGeometry>
        </mxCell>
        <mxCell id="7fS5oWLQzM0IxhjuAHD0-21" style="edgeStyle=orthogonalEdgeStyle;rounded=0;orthogonalLoop=1;jettySize=auto;html=1;exitX=1;exitY=0.5;exitDx=0;exitDy=0;entryX=1;entryY=0.5;entryDx=0;entryDy=0;" parent="1" source="7fS5oWLQzM0IxhjuAHD0-22" target="7fS5oWLQzM0IxhjuAHD0-26" edge="1">
          <mxGeometry relative="1" as="geometry" />
        </mxCell>
        <mxCell id="wYqAE9kgNwy14ZpDtIfz-4" value="Open Host Service" style="edgeLabel;html=1;align=center;verticalAlign=middle;resizable=0;points=[];" parent="7fS5oWLQzM0IxhjuAHD0-21" vertex="1" connectable="0">
          <mxGeometry x="-0.0615" y="-2" relative="1" as="geometry">
            <mxPoint x="-18" y="-2" as="offset" />
          </mxGeometry>
        </mxCell>
        <mxCell id="7fS5oWLQzM0IxhjuAHD0-22" value="Schritt 2" style="shape=document;whiteSpace=wrap;html=1;boundedLbl=1;fontSize=16;" parent="1" vertex="1">
          <mxGeometry x="240" y="-589" width="120" height="80" as="geometry" />
        </mxCell>
        <mxCell id="7fS5oWLQzM0IxhjuAHD0-72" style="edgeStyle=orthogonalEdgeStyle;rounded=0;orthogonalLoop=1;jettySize=auto;html=1;exitX=0;exitY=0.5;exitDx=0;exitDy=0;entryX=0;entryY=0.5;entryDx=0;entryDy=0;" parent="1" source="7fS5oWLQzM0IxhjuAHD0-23" target="7fS5oWLQzM0IxhjuAHD0-25" edge="1">
          <mxGeometry relative="1" as="geometry">
            <Array as="points">
              <mxPoint x="460" y="-549" />
              <mxPoint x="460" y="-409" />
            </Array>
          </mxGeometry>
        </mxCell>
        <mxCell id="wYqAE9kgNwy14ZpDtIfz-3" value="Conformist" style="edgeLabel;html=1;align=center;verticalAlign=middle;resizable=0;points=[];" parent="7fS5oWLQzM0IxhjuAHD0-72" vertex="1" connectable="0">
          <mxGeometry x="-0.2444" y="1" relative="1" as="geometry">
            <mxPoint x="-11" y="52" as="offset" />
          </mxGeometry>
        </mxCell>
        <mxCell id="7fS5oWLQzM0IxhjuAHD0-23" value="Schritt 3" style="shape=document;whiteSpace=wrap;html=1;boundedLbl=1;fontSize=16;" parent="1" vertex="1">
          <mxGeometry x="480" y="-589" width="120" height="80" as="geometry" />
        </mxCell>
        <mxCell id="7fS5oWLQzM0IxhjuAHD0-24" style="edgeStyle=orthogonalEdgeStyle;rounded=0;orthogonalLoop=1;jettySize=auto;html=1;exitX=1;exitY=0.5;exitDx=0;exitDy=0;entryX=0;entryY=0.5;entryDx=0;entryDy=0;" parent="1" source="7fS5oWLQzM0IxhjuAHD0-25" target="7fS5oWLQzM0IxhjuAHD0-27" edge="1">
          <mxGeometry relative="1" as="geometry" />
        </mxCell>
        <mxCell id="7fS5oWLQzM0IxhjuAHD0-25" value="Schritt 4" style="shape=document;whiteSpace=wrap;html=1;boundedLbl=1;fontSize=16;" parent="1" vertex="1">
          <mxGeometry x="480" y="-449" width="120" height="80" as="geometry" />
        </mxCell>
        <mxCell id="7fS5oWLQzM0IxhjuAHD0-26" value="Schritt 6" style="shape=document;whiteSpace=wrap;html=1;boundedLbl=1;fontSize=16;" parent="1" vertex="1">
          <mxGeometry x="160" y="-449" width="120" height="80" as="geometry" />
        </mxCell>
        <mxCell id="7fS5oWLQzM0IxhjuAHD0-27" value="Schritt 5" style="shape=document;whiteSpace=wrap;html=1;boundedLbl=1;fontSize=16;" parent="1" vertex="1">
          <mxGeometry x="650" y="-449" width="120" height="80" as="geometry" />
        </mxCell>
        <mxCell id="7fS5oWLQzM0IxhjuAHD0-31" value="" style="endArrow=none;dashed=1;html=1;dashPattern=1 3;strokeWidth=2;rounded=0;" parent="1" edge="1">
          <mxGeometry width="50" height="50" relative="1" as="geometry">
            <mxPoint x="20" y="-299" as="sourcePoint" />
            <mxPoint x="800" y="-299" as="targetPoint" />
          </mxGeometry>
        </mxCell>
        <mxCell id="7fS5oWLQzM0IxhjuAHD0-32" value="Service C" style="shape=cube;whiteSpace=wrap;html=1;boundedLbl=1;backgroundOutline=1;darkOpacity=0.05;darkOpacity2=0.1;labelPosition=center;verticalLabelPosition=top;align=center;verticalAlign=bottom;" parent="1" vertex="1">
          <mxGeometry x="50" y="-99" width="260" height="110" as="geometry" />
        </mxCell>
        <mxCell id="7fS5oWLQzM0IxhjuAHD0-33" value="Kontext 4" style="rounded=0;whiteSpace=wrap;html=1;labelPosition=center;verticalLabelPosition=middle;align=center;verticalAlign=middle;strokeColor=light-dark(#000000,#0433FF);" parent="1" vertex="1">
          <mxGeometry x="100" y="-59" width="180" height="50" as="geometry" />
        </mxCell>
        <mxCell id="7fS5oWLQzM0IxhjuAHD0-34" value="" style="endArrow=none;dashed=1;html=1;dashPattern=1 3;strokeWidth=2;rounded=0;" parent="1" edge="1">
          <mxGeometry width="50" height="50" relative="1" as="geometry">
            <mxPoint x="20" y="51" as="sourcePoint" />
            <mxPoint x="800" y="51" as="targetPoint" />
          </mxGeometry>
        </mxCell>
        <mxCell id="7fS5oWLQzM0IxhjuAHD0-37" value="Service A" style="shape=cube;whiteSpace=wrap;html=1;boundedLbl=1;backgroundOutline=1;darkOpacity=0.05;darkOpacity2=0.1;labelPosition=center;verticalLabelPosition=top;align=center;verticalAlign=bottom;" parent="1" vertex="1">
          <mxGeometry x="50" y="101" width="260" height="110" as="geometry" />
        </mxCell>
        <mxCell id="7fS5oWLQzM0IxhjuAHD0-38" value="Service C" style="shape=cube;whiteSpace=wrap;html=1;boundedLbl=1;backgroundOutline=1;darkOpacity=0.05;darkOpacity2=0.1;labelPosition=center;verticalLabelPosition=bottom;align=center;verticalAlign=top;" parent="1" vertex="1">
          <mxGeometry x="70" y="271" width="260" height="110" as="geometry" />
        </mxCell>
        <mxCell id="7fS5oWLQzM0IxhjuAHD0-40" style="edgeStyle=orthogonalEdgeStyle;rounded=0;orthogonalLoop=1;jettySize=auto;html=1;exitX=0;exitY=0;exitDx=140;exitDy=110;exitPerimeter=0;entryX=0;entryY=0;entryDx=120;entryDy=0;entryPerimeter=0;startArrow=classic;startFill=1;" parent="1" source="7fS5oWLQzM0IxhjuAHD0-37" target="7fS5oWLQzM0IxhjuAHD0-38" edge="1">
          <mxGeometry relative="1" as="geometry" />
        </mxCell>
        <mxCell id="7fS5oWLQzM0IxhjuAHD0-44" value="API" style="edgeLabel;html=1;align=center;verticalAlign=middle;resizable=0;points=[];" parent="7fS5oWLQzM0IxhjuAHD0-40" vertex="1" connectable="0">
          <mxGeometry x="-0.22" relative="1" as="geometry">
            <mxPoint y="7" as="offset" />
          </mxGeometry>
        </mxCell>
        <mxCell id="7fS5oWLQzM0IxhjuAHD0-41" value="Service B" style="shape=cube;whiteSpace=wrap;html=1;boundedLbl=1;backgroundOutline=1;darkOpacity=0.05;darkOpacity2=0.1;labelPosition=center;verticalLabelPosition=top;align=center;verticalAlign=bottom;" parent="1" vertex="1">
          <mxGeometry x="380" y="121" width="260" height="110" as="geometry" />
        </mxCell>
        <mxCell id="7fS5oWLQzM0IxhjuAHD0-42" style="edgeStyle=orthogonalEdgeStyle;rounded=0;orthogonalLoop=1;jettySize=auto;html=1;exitX=0;exitY=0;exitDx=260;exitDy=65;exitPerimeter=0;entryX=0;entryY=0;entryDx=0;entryDy=45;entryPerimeter=0;startArrow=classic;startFill=1;" parent="1" source="7fS5oWLQzM0IxhjuAHD0-37" target="7fS5oWLQzM0IxhjuAHD0-41" edge="1">
          <mxGeometry relative="1" as="geometry" />
        </mxCell>
        <mxCell id="7fS5oWLQzM0IxhjuAHD0-43" value="API" style="edgeLabel;html=1;align=center;verticalAlign=middle;resizable=0;points=[];" parent="7fS5oWLQzM0IxhjuAHD0-42" vertex="1" connectable="0">
          <mxGeometry x="-0.0571" y="1" relative="1" as="geometry">
            <mxPoint as="offset" />
          </mxGeometry>
        </mxCell>
        <mxCell id="7fS5oWLQzM0IxhjuAHD0-45" value="" style="endArrow=none;dashed=1;html=1;dashPattern=1 3;strokeWidth=2;rounded=0;" parent="1" edge="1">
          <mxGeometry width="50" height="50" relative="1" as="geometry">
            <mxPoint x="20" y="431" as="sourcePoint" />
            <mxPoint x="800" y="431" as="targetPoint" />
          </mxGeometry>
        </mxCell>
        <mxCell id="7fS5oWLQzM0IxhjuAHD0-53" style="edgeStyle=orthogonalEdgeStyle;rounded=0;orthogonalLoop=1;jettySize=auto;html=1;exitX=0;exitY=0;exitDx=140;exitDy=110;exitPerimeter=0;entryX=0.5;entryY=0;entryDx=0;entryDy=0;entryPerimeter=0;startArrow=classic;startFill=1;" parent="1" source="7fS5oWLQzM0IxhjuAHD0-41" target="73rr_FjuBhcJZTZMzzjQ-16" edge="1">
          <mxGeometry relative="1" as="geometry" />
        </mxCell>
        <mxCell id="7fS5oWLQzM0IxhjuAHD0-64" value="&lt;div&gt;Schritt 1:&lt;/div&gt;&lt;div&gt;&lt;br&gt;&lt;/div&gt;Anforderungen sammeln und visualisieren" style="rounded=0;whiteSpace=wrap;html=1;strokeColor=#FF0000;" parent="1" vertex="1">
          <mxGeometry x="680" y="-1149" width="120" height="90" as="geometry" />
        </mxCell>
        <mxCell id="7fS5oWLQzM0IxhjuAHD0-65" value="&lt;div&gt;Schritt 2:&lt;/div&gt;&lt;div&gt;&lt;br&gt;&lt;/div&gt;Kontext-Übersicht erstellen" style="rounded=0;whiteSpace=wrap;html=1;strokeColor=#FF0000;" parent="1" vertex="1">
          <mxGeometry x="680" y="-639" width="120" height="80" as="geometry" />
        </mxCell>
        <mxCell id="7fS5oWLQzM0IxhjuAHD0-66" value="Schritt 3:&lt;div&gt;&lt;br&gt;&lt;div&gt;Services/Module&lt;div&gt;festlegen&lt;/div&gt;&lt;/div&gt;&lt;/div&gt;" style="rounded=0;whiteSpace=wrap;html=1;strokeColor=#FF0000;" parent="1" vertex="1">
          <mxGeometry x="680" y="-279" width="120" height="80" as="geometry" />
        </mxCell>
        <mxCell id="7fS5oWLQzM0IxhjuAHD0-67" value="&lt;div&gt;Schritt 4:&lt;/div&gt;&lt;div&gt;&lt;br&gt;&lt;/div&gt;&lt;span style=&quot;background-color: transparent; color: light-dark(rgb(0, 0, 0), rgb(255, 255, 255));&quot;&gt;Verteilte Prozesse abbilden&amp;nbsp;&lt;/span&gt;&lt;span style=&quot;background-color: transparent; color: light-dark(rgb(0, 0, 0), rgb(255, 255, 255));&quot;&gt;und&lt;/span&gt;&lt;div&gt;&lt;div&gt;Datenfluss planen&lt;/div&gt;&lt;/div&gt;" style="rounded=0;whiteSpace=wrap;html=1;strokeColor=#FF0000;" parent="1" vertex="1">
          <mxGeometry x="680" y="71" width="120" height="100" as="geometry" />
        </mxCell>
        <mxCell id="7fS5oWLQzM0IxhjuAHD0-70" style="edgeStyle=orthogonalEdgeStyle;rounded=0;orthogonalLoop=1;jettySize=auto;html=1;exitX=1;exitY=0.5;exitDx=0;exitDy=0;entryX=0;entryY=0.5;entryDx=0;entryDy=0;startArrow=classic;startFill=1;" parent="1" source="7fS5oWLQzM0IxhjuAHD0-68" target="7fS5oWLQzM0IxhjuAHD0-69" edge="1">
          <mxGeometry relative="1" as="geometry" />
        </mxCell>
        <mxCell id="7fS5oWLQzM0IxhjuAHD0-71" value="API" style="edgeLabel;html=1;align=center;verticalAlign=middle;resizable=0;points=[];" parent="7fS5oWLQzM0IxhjuAHD0-70" vertex="1" connectable="0">
          <mxGeometry x="-0.075" y="-3" relative="1" as="geometry">
            <mxPoint x="3" y="-3" as="offset" />
          </mxGeometry>
        </mxCell>
        <mxCell id="7fS5oWLQzM0IxhjuAHD0-68" value="" style="rounded=0;whiteSpace=wrap;html=1;labelPosition=center;verticalLabelPosition=middle;align=center;verticalAlign=middle;strokeColor=light-dark(#000000,#0433FF);" parent="1" vertex="1">
          <mxGeometry x="420" y="161" width="60" height="50" as="geometry" />
        </mxCell>
        <mxCell id="7fS5oWLQzM0IxhjuAHD0-69" value="" style="rounded=0;whiteSpace=wrap;html=1;labelPosition=center;verticalLabelPosition=middle;align=center;verticalAlign=middle;strokeColor=light-dark(#000000,#0433FF);" parent="1" vertex="1">
          <mxGeometry x="560" y="161" width="60" height="50" as="geometry" />
        </mxCell>
        <mxCell id="7fS5oWLQzM0IxhjuAHD0-73" value="&lt;div&gt;Schritt 5:&lt;/div&gt;&lt;div&gt;&lt;br&gt;&lt;/div&gt;Service aufbauen" style="rounded=0;whiteSpace=wrap;html=1;strokeColor=#FF0000;" parent="1" vertex="1">
          <mxGeometry x="680" y="451" width="120" height="70" as="geometry" />
        </mxCell>
        <mxCell id="7fS5oWLQzM0IxhjuAHD0-74" value="DB" style="strokeWidth=2;html=1;shape=mxgraph.flowchart.database;whiteSpace=wrap;labelPosition=center;verticalLabelPosition=bottom;align=center;verticalAlign=top;" parent="1" vertex="1">
          <mxGeometry x="390" y="321" width="60" height="60" as="geometry" />
        </mxCell>
        <mxCell id="7fS5oWLQzM0IxhjuAHD0-75" style="edgeStyle=orthogonalEdgeStyle;rounded=0;orthogonalLoop=1;jettySize=auto;html=1;exitX=0;exitY=0;exitDx=260;exitDy=65;exitPerimeter=0;entryX=0;entryY=0.5;entryDx=0;entryDy=0;entryPerimeter=0;startArrow=classic;startFill=1;" parent="1" source="7fS5oWLQzM0IxhjuAHD0-38" target="7fS5oWLQzM0IxhjuAHD0-74" edge="1">
          <mxGeometry relative="1" as="geometry" />
        </mxCell>
        <mxCell id="ZYhb9RCFr_MS35cpmbMu-6" value="&lt;span style=&quot;text-wrap-mode: nowrap;&quot;&gt;Akteur&lt;/span&gt;" style="rounded=0;whiteSpace=wrap;html=1;labelPosition=center;verticalLabelPosition=top;align=center;verticalAlign=bottom;" parent="1" vertex="1">
          <mxGeometry x="50" y="-1119" width="13" height="140" as="geometry" />
        </mxCell>
        <mxCell id="ZYhb9RCFr_MS35cpmbMu-43" style="edgeStyle=orthogonalEdgeStyle;rounded=0;orthogonalLoop=1;jettySize=auto;html=1;exitX=1;exitY=0.25;exitDx=0;exitDy=0;entryX=0;entryY=0.25;entryDx=0;entryDy=0;" parent="1" source="ZYhb9RCFr_MS35cpmbMu-9" target="ZYhb9RCFr_MS35cpmbMu-38" edge="1">
          <mxGeometry relative="1" as="geometry" />
        </mxCell>
        <mxCell id="ZYhb9RCFr_MS35cpmbMu-9" value="" style="rounded=0;whiteSpace=wrap;html=1;labelPosition=center;verticalLabelPosition=top;align=center;verticalAlign=bottom;" parent="1" vertex="1">
          <mxGeometry x="50" y="-1119" width="13" height="70" as="geometry" />
        </mxCell>
        <mxCell id="ZYhb9RCFr_MS35cpmbMu-49" style="edgeStyle=orthogonalEdgeStyle;rounded=0;orthogonalLoop=1;jettySize=auto;html=1;exitX=1;exitY=0.75;exitDx=0;exitDy=0;entryX=0;entryY=0.75;entryDx=0;entryDy=0;" parent="1" source="ZYhb9RCFr_MS35cpmbMu-15" target="ZYhb9RCFr_MS35cpmbMu-42" edge="1">
          <mxGeometry relative="1" as="geometry" />
        </mxCell>
        <mxCell id="ZYhb9RCFr_MS35cpmbMu-15" value="" style="rounded=0;whiteSpace=wrap;html=1;labelPosition=center;verticalLabelPosition=top;align=center;verticalAlign=bottom;" parent="1" vertex="1">
          <mxGeometry x="50" y="-1049" width="13" height="70" as="geometry" />
        </mxCell>
        <mxCell id="ZYhb9RCFr_MS35cpmbMu-37" value="&lt;span style=&quot;text-wrap-mode: nowrap;&quot;&gt;Akteur&lt;/span&gt;" style="rounded=0;whiteSpace=wrap;html=1;labelPosition=center;verticalLabelPosition=top;align=center;verticalAlign=bottom;" parent="1" vertex="1">
          <mxGeometry x="239" y="-1119" width="13" height="69" as="geometry" />
        </mxCell>
        <mxCell id="ZYhb9RCFr_MS35cpmbMu-44" style="edgeStyle=orthogonalEdgeStyle;rounded=0;orthogonalLoop=1;jettySize=auto;html=1;exitX=1;exitY=0.5;exitDx=0;exitDy=0;entryX=0;entryY=0.5;entryDx=0;entryDy=0;" parent="1" source="ZYhb9RCFr_MS35cpmbMu-38" target="ZYhb9RCFr_MS35cpmbMu-41" edge="1">
          <mxGeometry relative="1" as="geometry" />
        </mxCell>
        <mxCell id="ZYhb9RCFr_MS35cpmbMu-45" style="edgeStyle=orthogonalEdgeStyle;rounded=0;orthogonalLoop=1;jettySize=auto;html=1;exitX=0;exitY=0.75;exitDx=0;exitDy=0;entryX=1;entryY=0.75;entryDx=0;entryDy=0;" parent="1" source="ZYhb9RCFr_MS35cpmbMu-38" target="ZYhb9RCFr_MS35cpmbMu-9" edge="1">
          <mxGeometry relative="1" as="geometry" />
        </mxCell>
        <mxCell id="ZYhb9RCFr_MS35cpmbMu-38" value="" style="rounded=0;whiteSpace=wrap;html=1;labelPosition=center;verticalLabelPosition=top;align=center;verticalAlign=bottom;" parent="1" vertex="1">
          <mxGeometry x="239" y="-1119" width="13" height="70" as="geometry" />
        </mxCell>
        <mxCell id="ZYhb9RCFr_MS35cpmbMu-40" value="&lt;span style=&quot;text-wrap-mode: nowrap;&quot;&gt;Akteur&lt;/span&gt;" style="rounded=0;whiteSpace=wrap;html=1;labelPosition=center;verticalLabelPosition=top;align=center;verticalAlign=bottom;" parent="1" vertex="1">
          <mxGeometry x="418" y="-1119" width="13" height="140" as="geometry" />
        </mxCell>
        <mxCell id="ZYhb9RCFr_MS35cpmbMu-53" style="edgeStyle=orthogonalEdgeStyle;rounded=0;orthogonalLoop=1;jettySize=auto;html=1;exitX=1;exitY=0.75;exitDx=0;exitDy=0;entryX=0;entryY=0.75;entryDx=0;entryDy=0;" parent="1" source="ZYhb9RCFr_MS35cpmbMu-41" target="ZYhb9RCFr_MS35cpmbMu-51" edge="1">
          <mxGeometry relative="1" as="geometry" />
        </mxCell>
        <mxCell id="ZYhb9RCFr_MS35cpmbMu-41" value="" style="rounded=0;whiteSpace=wrap;html=1;labelPosition=center;verticalLabelPosition=top;align=center;verticalAlign=bottom;" parent="1" vertex="1">
          <mxGeometry x="418" y="-1119" width="13" height="70" as="geometry" />
        </mxCell>
        <mxCell id="ZYhb9RCFr_MS35cpmbMu-54" style="edgeStyle=orthogonalEdgeStyle;rounded=0;orthogonalLoop=1;jettySize=auto;html=1;exitX=1;exitY=0.25;exitDx=0;exitDy=0;entryX=0;entryY=0.25;entryDx=0;entryDy=0;" parent="1" source="ZYhb9RCFr_MS35cpmbMu-42" target="ZYhb9RCFr_MS35cpmbMu-52" edge="1">
          <mxGeometry relative="1" as="geometry" />
        </mxCell>
        <mxCell id="lzGzMJE4q99HIGa_F_YV-3" style="edgeStyle=orthogonalEdgeStyle;rounded=0;orthogonalLoop=1;jettySize=auto;html=1;exitX=0;exitY=0.25;exitDx=0;exitDy=0;entryX=1;entryY=0.25;entryDx=0;entryDy=0;" parent="1" source="ZYhb9RCFr_MS35cpmbMu-42" target="ZYhb9RCFr_MS35cpmbMu-15" edge="1">
          <mxGeometry relative="1" as="geometry" />
        </mxCell>
        <mxCell id="ZYhb9RCFr_MS35cpmbMu-42" value="" style="rounded=0;whiteSpace=wrap;html=1;labelPosition=center;verticalLabelPosition=top;align=center;verticalAlign=bottom;" parent="1" vertex="1">
          <mxGeometry x="418" y="-1049" width="13" height="70" as="geometry" />
        </mxCell>
        <mxCell id="ZYhb9RCFr_MS35cpmbMu-50" value="&lt;span style=&quot;text-wrap-mode: nowrap;&quot;&gt;Akteur&lt;/span&gt;" style="rounded=0;whiteSpace=wrap;html=1;labelPosition=center;verticalLabelPosition=top;align=center;verticalAlign=bottom;" parent="1" vertex="1">
          <mxGeometry x="596" y="-1119" width="13" height="140" as="geometry" />
        </mxCell>
        <mxCell id="ZYhb9RCFr_MS35cpmbMu-51" value="" style="rounded=0;whiteSpace=wrap;html=1;labelPosition=center;verticalLabelPosition=top;align=center;verticalAlign=bottom;" parent="1" vertex="1">
          <mxGeometry x="596" y="-1119" width="13" height="70" as="geometry" />
        </mxCell>
        <mxCell id="ZYhb9RCFr_MS35cpmbMu-52" value="" style="rounded=0;whiteSpace=wrap;html=1;labelPosition=center;verticalLabelPosition=top;align=center;verticalAlign=bottom;" parent="1" vertex="1">
          <mxGeometry x="596" y="-1049" width="13" height="70" as="geometry" />
        </mxCell>
        <mxCell id="ZYhb9RCFr_MS35cpmbMu-55" value="&lt;div&gt;zum Beispiel&lt;/div&gt;&lt;div&gt;Sequenzdiagramm&lt;br&gt;oder&amp;nbsp;&lt;span style=&quot;background-color: transparent; color: light-dark(rgb(0, 0, 0), rgb(255, 255, 255));&quot;&gt;Flowchart&lt;/span&gt;&lt;/div&gt;" style="rounded=0;whiteSpace=wrap;html=1;strokeColor=#FF0000;" parent="1" vertex="1">
          <mxGeometry x="680" y="-979" width="120" height="70" as="geometry" />
        </mxCell>
        <mxCell id="Hv05wG1mzeypUASz1jE2-2" value="Service" style="shape=cube;whiteSpace=wrap;html=1;boundedLbl=1;backgroundOutline=1;darkOpacity=0.05;darkOpacity2=0.1;labelPosition=center;verticalLabelPosition=top;align=center;verticalAlign=bottom;" vertex="1" parent="1">
          <mxGeometry x="171" y="540" width="470" height="260" as="geometry" />
        </mxCell>
        <mxCell id="Hv05wG1mzeypUASz1jE2-3" value="API (in)" style="rounded=0;whiteSpace=wrap;html=1;labelPosition=center;verticalLabelPosition=middle;align=center;verticalAlign=middle;strokeColor=light-dark(#000000,#FFFFFF);" vertex="1" parent="1">
          <mxGeometry x="239" y="585" width="72" height="35" as="geometry" />
        </mxCell>
        <mxCell id="Hv05wG1mzeypUASz1jE2-4" value="API (out)" style="rounded=0;whiteSpace=wrap;html=1;labelPosition=center;verticalLabelPosition=middle;align=center;verticalAlign=middle;strokeColor=light-dark(#000000,#FFFFFF);" vertex="1" parent="1">
          <mxGeometry x="519" y="585" width="92" height="35" as="geometry" />
        </mxCell>
        <mxCell id="Hv05wG1mzeypUASz1jE2-5" style="edgeStyle=orthogonalEdgeStyle;shape=connector;rounded=0;orthogonalLoop=1;jettySize=auto;html=1;exitX=1;exitY=0.5;exitDx=0;exitDy=0;strokeColor=default;align=center;verticalAlign=middle;fontFamily=Helvetica;fontSize=11;fontColor=default;labelBackgroundColor=default;endArrow=classic;endFill=1;" edge="1" parent="1" source="Hv05wG1mzeypUASz1jE2-6" target="Hv05wG1mzeypUASz1jE2-8">
          <mxGeometry relative="1" as="geometry" />
        </mxCell>
        <mxCell id="Hv05wG1mzeypUASz1jE2-6" value="DB" style="rounded=0;whiteSpace=wrap;html=1;labelPosition=center;verticalLabelPosition=middle;align=center;verticalAlign=middle;strokeColor=light-dark(#000000,#FFFFFF);" vertex="1" parent="1">
          <mxGeometry x="558" y="720" width="50" height="30" as="geometry" />
        </mxCell>
        <mxCell id="Hv05wG1mzeypUASz1jE2-7" value="Service" style="shape=cube;whiteSpace=wrap;html=1;boundedLbl=1;backgroundOutline=1;darkOpacity=0.05;darkOpacity2=0.1;labelPosition=center;verticalLabelPosition=top;align=center;verticalAlign=bottom;" vertex="1" parent="1">
          <mxGeometry x="682" y="580" width="90" height="65" as="geometry" />
        </mxCell>
        <mxCell id="Hv05wG1mzeypUASz1jE2-8" value="DB" style="strokeWidth=2;html=1;shape=mxgraph.flowchart.database;whiteSpace=wrap;labelPosition=center;verticalLabelPosition=bottom;align=center;verticalAlign=top;" vertex="1" parent="1">
          <mxGeometry x="697" y="705" width="60" height="60" as="geometry" />
        </mxCell>
        <mxCell id="Hv05wG1mzeypUASz1jE2-9" style="edgeStyle=orthogonalEdgeStyle;rounded=0;orthogonalLoop=1;jettySize=auto;html=1;exitX=1;exitY=0.5;exitDx=0;exitDy=0;entryX=0;entryY=0;entryDx=0;entryDy=22.5;entryPerimeter=0;" edge="1" parent="1" source="Hv05wG1mzeypUASz1jE2-4" target="Hv05wG1mzeypUASz1jE2-7">
          <mxGeometry relative="1" as="geometry">
            <Array as="points">
              <mxPoint x="678" y="603" />
              <mxPoint x="678" y="603" />
            </Array>
          </mxGeometry>
        </mxCell>
        <mxCell id="Hv05wG1mzeypUASz1jE2-10" style="edgeStyle=orthogonalEdgeStyle;rounded=0;orthogonalLoop=1;jettySize=auto;html=1;exitX=0;exitY=0;exitDx=90;exitDy=45;exitPerimeter=0;entryX=0;entryY=0.5;entryDx=0;entryDy=0;" edge="1" parent="1" source="Hv05wG1mzeypUASz1jE2-11" target="Hv05wG1mzeypUASz1jE2-3">
          <mxGeometry relative="1" as="geometry">
            <Array as="points">
              <mxPoint x="211" y="585" />
              <mxPoint x="211" y="603" />
            </Array>
          </mxGeometry>
        </mxCell>
        <mxCell id="Hv05wG1mzeypUASz1jE2-11" value="Service" style="shape=cube;whiteSpace=wrap;html=1;boundedLbl=1;backgroundOutline=1;darkOpacity=0.05;darkOpacity2=0.1;labelPosition=center;verticalLabelPosition=top;align=center;verticalAlign=bottom;" vertex="1" parent="1">
          <mxGeometry x="48" y="540" width="90" height="65" as="geometry" />
        </mxCell>
        <mxCell id="Hv05wG1mzeypUASz1jE2-12" value="&amp;nbsp;&lt;span style=&quot;background-color: transparent; color: light-dark(rgb(0, 0, 0), rgb(255, 255, 255));&quot;&gt;ACL&lt;/span&gt;" style="rounded=0;whiteSpace=wrap;html=1;labelPosition=center;verticalLabelPosition=middle;align=center;verticalAlign=middle;strokeColor=light-dark(#000000,#FFFFFF);dashed=1;" vertex="1" parent="1">
          <mxGeometry x="555" y="620" width="56" height="25" as="geometry" />
        </mxCell>
        <mxCell id="Hv05wG1mzeypUASz1jE2-13" style="edgeStyle=orthogonalEdgeStyle;shape=connector;rounded=0;orthogonalLoop=1;jettySize=auto;html=1;exitX=0.5;exitY=1;exitDx=0;exitDy=0;entryX=0;entryY=0.5;entryDx=0;entryDy=0;strokeColor=default;align=center;verticalAlign=middle;fontFamily=Helvetica;fontSize=11;fontColor=default;labelBackgroundColor=default;endArrow=classic;endFill=1;" edge="1" parent="1" source="Hv05wG1mzeypUASz1jE2-14" target="Hv05wG1mzeypUASz1jE2-17">
          <mxGeometry relative="1" as="geometry" />
        </mxCell>
        <mxCell id="Hv05wG1mzeypUASz1jE2-14" value="&amp;nbsp;&lt;span style=&quot;background-color: transparent; color: light-dark(rgb(0, 0, 0), rgb(255, 255, 255));&quot;&gt;ACL&lt;/span&gt;" style="rounded=0;whiteSpace=wrap;html=1;labelPosition=center;verticalLabelPosition=middle;align=center;verticalAlign=middle;strokeColor=light-dark(#000000,#FFFFFF);dashed=1;" vertex="1" parent="1">
          <mxGeometry x="261" y="620" width="50" height="25" as="geometry" />
        </mxCell>
        <mxCell id="Hv05wG1mzeypUASz1jE2-15" style="edgeStyle=orthogonalEdgeStyle;shape=connector;rounded=0;orthogonalLoop=1;jettySize=auto;html=1;exitX=1;exitY=0.25;exitDx=0;exitDy=0;entryX=0.5;entryY=1;entryDx=0;entryDy=0;strokeColor=default;align=center;verticalAlign=middle;fontFamily=Helvetica;fontSize=11;fontColor=default;labelBackgroundColor=default;endArrow=classic;endFill=1;" edge="1" parent="1" source="Hv05wG1mzeypUASz1jE2-17" target="Hv05wG1mzeypUASz1jE2-12">
          <mxGeometry relative="1" as="geometry" />
        </mxCell>
        <mxCell id="Hv05wG1mzeypUASz1jE2-16" style="edgeStyle=orthogonalEdgeStyle;shape=connector;rounded=0;orthogonalLoop=1;jettySize=auto;html=1;exitX=1;exitY=0.75;exitDx=0;exitDy=0;entryX=0;entryY=0.5;entryDx=0;entryDy=0;strokeColor=default;align=center;verticalAlign=middle;fontFamily=Helvetica;fontSize=11;fontColor=default;labelBackgroundColor=default;endArrow=classic;endFill=1;" edge="1" parent="1" source="Hv05wG1mzeypUASz1jE2-17" target="Hv05wG1mzeypUASz1jE2-6">
          <mxGeometry relative="1" as="geometry" />
        </mxCell>
        <mxCell id="Hv05wG1mzeypUASz1jE2-17" value="Fachlichkeit&lt;div&gt;(Domain)&lt;/div&gt;" style="rounded=0;whiteSpace=wrap;html=1;fontFamily=Helvetica;fontSize=11;fontColor=default;labelBackgroundColor=default;" vertex="1" parent="1">
          <mxGeometry x="366" y="660" width="120" height="85" as="geometry" />
        </mxCell>
      </root>
    </mxGraphModel>
  </diagram>
</mxfile>
